<svg width="187" height="399" viewBox="0 0 187 399" fill="none" xmlns="http://www.w3.org/2000/svg">
<path d="M79.7714 394.514C85.5609 399.979 94.5231 400.392 100.505 395.138C129.033 370.081 151.431 340.23 166.285 307.371C182.941 270.529 189.674 230.878 185.972 191.44C182.269 152.001 168.229 113.815 144.921 79.7905C124.106 49.406 96.3906 23.0564 63.5084 2.31329C56.7176 -1.97055 47.8502 -0.111034 43.0055 6.29171L3.25632 58.8245C-2.5762 66.5329 -0.252136 77.5723 7.66446 83.1188C25.3491 95.5089 40.394 110.552 52.0548 127.574C66.9721 149.35 75.9577 173.789 78.3272 199.03C80.6967 224.271 76.3875 249.647 65.728 273.226C57.4755 291.481 45.5853 308.285 30.6489 322.891C23.6864 329.7 23.1532 341.073 30.235 347.758L79.7714 394.514Z" fill="#FFA500" fill-opacity="0.06"/>
</svg>
