<svg width="185" height="428" viewBox="0 0 185 428" fill="none" xmlns="http://www.w3.org/2000/svg">
<path d="M60.3061 422.152C65.6516 428.081 74.5815 429.201 80.9738 424.419C115.417 398.649 142.696 366.385 160.672 330.037C180.579 289.784 188.431 245.825 183.5 202.24C178.569 158.655 161.015 116.856 132.466 80.7204C106.684 48.0876 72.6903 21.0292 33.1238 1.54779C25.8337 -2.04165 17.1074 0.836823 13.0155 7.85725L2.18405 26.4409C-2.6322 34.7042 0.855804 45.2827 9.32327 49.7302C38.4868 65.0481 63.6128 85.6116 82.9589 110.099C105.798 139.007 119.841 172.446 123.786 207.315C127.731 242.183 121.449 277.349 105.524 309.552C92.1555 336.584 72.3547 360.792 47.4969 380.628C39.9037 386.688 38.4951 397.957 44.9997 405.172L60.3061 422.152Z" fill="white" fill-opacity="0.2"/>
</svg>
